<svg width="148" height="74" viewBox="0 0 148 74" fill="none" xmlns="http://www.w3.org/2000/svg">
<path d="M16.52 15.8V55H8.848V23.584L1.176 26.72V20.056L11.648 15.8H16.52ZM26.2434 46.432C27.5128 46.432 28.5954 46.88 29.4914 47.776C30.3874 48.672 30.8354 49.7547 30.8354 51.024C30.8354 52.256 30.3874 53.32 29.4914 54.216C28.5954 55.112 27.5128 55.56 26.2434 55.56C25.0114 55.56 23.9474 55.112 23.0514 54.216C22.1554 53.32 21.7074 52.256 21.7074 51.024C21.7074 49.7547 22.1554 48.672 23.0514 47.776C23.9474 46.88 25.0114 46.432 26.2434 46.432ZM48.2374 15.128C50.8134 15.128 53.1654 15.6133 55.2934 16.584C57.4214 17.5173 59.2321 18.8427 60.7254 20.56C62.2561 22.24 63.4321 24.2747 64.2534 26.664C65.1121 29.0533 65.5414 31.6853 65.5414 34.56C65.5414 37.696 65.0748 40.5707 64.1414 43.184C63.2081 45.76 61.9014 47.9627 60.2214 49.792C58.5414 51.6213 56.5068 53.04 54.1174 54.048C51.7281 55.056 49.0961 55.56 46.2214 55.56C44.0934 55.56 41.9841 55.224 39.8934 54.552C37.8028 53.8427 36.0481 52.9093 34.6294 51.752L38.9974 46.264C40.1548 47.16 41.3681 47.8133 42.6374 48.224C43.9068 48.6347 45.2881 48.84 46.7814 48.84C50.1414 48.84 52.7734 47.7013 54.6774 45.424C56.6188 43.1093 57.6828 39.8427 57.8694 35.624C56.6001 37.0427 55.0321 38.1627 53.1654 38.984C51.2988 39.768 49.3201 40.16 47.2294 40.16C45.2508 40.16 43.4214 39.8613 41.7414 39.264C40.0614 38.6667 38.6054 37.8453 37.3734 36.8C36.1788 35.7173 35.2454 34.448 34.5734 32.992C33.9014 31.4987 33.5654 29.8747 33.5654 28.12C33.5654 26.2533 33.9388 24.536 34.6854 22.968C35.4321 21.3627 36.4401 19.9813 37.7094 18.824C39.0161 17.6667 40.5654 16.7707 42.3574 16.136C44.1868 15.464 46.1468 15.128 48.2374 15.128ZM48.4614 34.112C50.2161 34.112 51.8401 33.7387 53.3334 32.992C54.8641 32.2453 56.2268 31.1813 57.4214 29.8C56.8241 27.336 55.7414 25.3573 54.1734 23.864C52.6054 22.3707 50.7388 21.624 48.5734 21.624C46.4454 21.624 44.6534 22.2213 43.1974 23.416C41.7788 24.6107 41.0694 26.1227 41.0694 27.952C41.0694 29.7813 41.7601 31.2747 43.1414 32.432C44.5228 33.552 46.2961 34.112 48.4614 34.112ZM91.959 52.2L78.407 26.16V55H70.903V15.8H81.319L92.071 36.856L102.823 15.8H113.239V55H105.567V26.216L91.959 52.2ZM135.182 47.776H129.19V37.864H119.334V31.928H129.19V22.296H135.182V31.928H144.982V37.864H135.182V47.776Z" fill="#222222"/>
<line x1="1" y1="72.5" x2="148" y2="72.5" stroke="#222222" stroke-width="3"/>
</svg>
