<svg width="113" height="74" viewBox="0 0 113 74" fill="none" xmlns="http://www.w3.org/2000/svg">
<path d="M2.128 55V49.624L17.584 35.792C19.3387 34.1867 20.5893 32.7867 21.336 31.592C22.0827 30.36 22.456 29.0907 22.456 27.784C22.456 26.0667 21.784 24.648 20.44 23.528C19.096 22.408 17.416 21.848 15.4 21.848C13.5333 21.848 11.7787 22.2213 10.136 22.968C8.53067 23.7147 6.776 24.9467 4.872 26.664L0.56 21.512C2.83733 19.4587 5.24533 17.9093 7.784 16.864C10.3227 15.8187 12.936 15.296 15.624 15.296C17.7147 15.296 19.6373 15.5947 21.392 16.192C23.184 16.752 24.696 17.5547 25.928 18.6C27.1973 19.6453 28.168 20.9147 28.84 22.408C29.5493 23.9013 29.904 25.5253 29.904 27.28C29.904 29.52 29.344 31.592 28.224 33.496C27.104 35.4 25.1627 37.584 22.4 40.048L12.824 48.56H30.408V55H2.128ZM56.6856 52.2L43.1336 26.16V55H35.6296V15.8H46.0456L56.7976 36.856L67.5496 15.8H77.9656V55H70.2936V26.216L56.6856 52.2ZM99.9084 47.776H93.9164V37.864H84.0604V31.928H93.9164V22.296H99.9084V31.928H109.708V37.864H99.9084V47.776Z" fill="#222222"/>
<line x1="1" y1="72.5" x2="113" y2="72.5" stroke="#222222" stroke-width="3"/>
</svg>
